<?xml version="1.0" encoding="utf-8"?>
<!-- Generator: Adobe Illustrator 24.1.1, SVG Export Plug-In . SVG Version: 6.00 Build 0)  -->
<svg version="1.1" xmlns="http://www.w3.org/2000/svg" xmlns:xlink="http://www.w3.org/1999/xlink" x="0px" y="0px"
	 viewBox="0 0 512 176.5" style="enable-background:new 0 0 512 176.5;" xml:space="preserve">
<style type="text/css">
	.st0{display:none;}
	.st1{display:inline;fill:#A1352D;}
	.st2{fill:#FFFFFF;}
</style>
<g id="Layer_3" class="st0">
	<rect y="-161.7" class="st1" width="512" height="512"/>
</g>
<g id="Layer_5">
	<g>
		<path class="st2" d="M26.6,163.4V89.5c0-2.3,0.1-4,0.2-5.1c0.2-1.1,0.6-2.4,1.3-3.8c1.4-2.7,4.8-4.1,10.1-4.1
			c5.3,0,8.9,0.7,10.7,2c1.9,1.4,2.9,3.3,3.2,5.9c3.8-5.2,9.8-7.8,18-7.8c8.2,0,15.9-10,23.2-2.3c7.3,7.7,11,16.7,11,26.9
			c0,10.2-3.6,19.2-10.9,26.9c-7.3,7.7-15,11.6-23.2,11.6c-8.2,0-14.2-2.3-17.9-6.9v30.4c0,2.3-0.1,4-0.2,5.1
			c-0.2,1.1-0.6,2.4-1.4,3.8c-0.8,1.5-2,2.5-3.8,3.1c-1.8,0.6-4.3,0.9-7.4,0.9c-3.1,0-5.6-0.3-7.4-0.9c-1.9-0.6-3.2-1.6-3.9-3
			c-0.8-1.4-1.2-2.7-1.4-3.8C26.7,167.4,26.6,165.7,26.6,163.4z M56.4,92.6c-2.3,2.7-3.5,5.7-3.5,8.9c0,3.2,1.2,6.1,3.5,8.8
			c2.4,2.7,5.4,4,9,4c3.7,0,6.8-1.3,9.3-3.9c2.6-2.6,3.8-5.6,3.8-8.9c0-3.3-1.2-6.3-3.6-8.9c-2.4-2.7-5.5-4-9.4-4
			C61.7,88.5,58.7,89.9,56.4,92.6z"/>
		<path class="st2" d="M165.5,71.1c0.6-5.6,4.6-8.4,11.9-8.4c3.9,0,6.8,0.3,8.7,0.9c1.9,0.6,3.2,1.7,4,3.2c0.8,1.5,1.2,2.8,1.4,4
			c0.2,1.2,0.2,2.9,0.2,5.2v52.6c0,2.3-0.1,4-0.2,5.2c-0.2,1.2-0.6,2.5-1.3,4c-1.4,2.6-4.8,3.9-10.3,3.9c-5.5,0-9.1-0.7-11-2
			c-1.9-1.4-2.9-3.3-3.2-5.9c-3.7,5.3-9.9,8-18.6,8c-8.7,0-16.7-4-24.1-11.9c-7.4-7.9-11.1-17.1-11.1-27.6
			c0-10.5,3.7-19.6,11.2-27.5c7.5-7.9,15.7-11.8,24.6-11.8c3.4,0,6.5,0.6,9.3,1.8c2.8,1.2,4.8,2.3,5.9,3.4
			C163.9,69.1,164.8,70.1,165.5,71.1z M138.1,102.4c0,3.3,1.3,6.3,3.9,8.9c2.6,2.7,5.8,4,9.5,4c3.7,0,6.8-1.4,9.2-4.1
			c2.5-2.7,3.7-5.7,3.7-8.9c0-3.3-1.2-6.3-3.5-9.1c-2.4-2.8-5.5-4.2-9.5-4.2c-4,0-7.2,1.4-9.6,4.2C139.4,96,138.1,99.1,138.1,102.4z
			"/>
		<path class="st2" d="M247.7,62.7c10,0,18.4,3.8,25,11.5c6.7,7.7,10,17,10,28v26.5c0,2.3-0.1,4-0.2,5.2c-0.1,1.2-0.6,2.4-1.3,3.8
			c-1.4,2.7-5.3,4.1-11.7,4.1c-7.1,0-11.2-1.9-12.3-5.6c-0.6-1.7-0.9-4.3-0.9-7.7v-26.5c0-4.1-1.2-7.3-3.5-9.6
			c-2.4-2.3-5.5-3.5-9.5-3.5c-4,0-7.2,1.2-9.6,3.6c-2.5,2.4-3.7,5.6-3.7,9.5v26.6c0,2.3-0.1,4-0.2,5.2c-0.2,1.2-0.6,2.4-1.4,3.8
			c-1.3,2.7-5.2,4.1-11.6,4.1c-6.3,0-10.2-1.4-11.6-4.1c-0.7-1.5-1.1-2.8-1.3-4c-0.2-1.2-0.2-2.9-0.2-5.2V75.3c0-2.2,0.1-3.9,0.2-5
			c0.2-1.2,0.6-2.4,1.4-3.8c1.4-2.5,5.3-3.8,11.6-3.8c6.1,0,9.9,1.2,11.3,3.5c1,1.7,1.5,3.8,1.5,6.2c0.4-0.7,1.3-1.7,2.7-3
			c1.4-1.3,2.8-2.4,4.1-3.2C239.9,63.8,243.6,62.7,247.7,62.7z"/>
		<path class="st2" d="M339.3,89.3l-9.8-0.6v20.7c0,2.7,0.4,4.7,1.3,5.9c0.9,1.2,2.5,1.8,4.8,1.8c2.4,0,4.2,0.1,5.4,0.2
			c1.3,0.1,2.6,0.6,4,1.4c2.3,1.3,3.5,4.7,3.5,10.1c0,6.3-1.4,10.2-4.2,11.6c-1.5,0.7-2.8,1.1-4,1.3c-1.2,0.1-2.8,0.2-5,0.2
			c-10.4,0-18.3-2.4-23.8-7.1c-5.4-4.7-8.1-12.7-8.1-23.9V88.7c-1.9,0.3-4,0.5-6.2,0.5c-2.2,0-4-0.9-5.5-2.6
			c-1.5-1.7-2.2-4.6-2.2-8.7c0-4.1,0.2-7.1,0.8-8.9c0.5-1.9,1.2-3.2,2.1-4c1.6-1.3,3.6-2,6-2l5,0.6V48.1c0-2.3,0.1-4,0.2-5.1
			c0.2-1.1,0.6-2.3,1.4-3.6c1.3-2.5,5.2-3.8,11.6-3.8c6.8,0,10.9,1.9,12.2,5.6c0.5,1.6,0.8,4.2,0.8,7.7v14.7c4.4-0.4,7.7-0.6,10-0.6
			c2.3,0,4,0.1,5.1,0.2c1.2,0.2,2.5,0.6,4,1.4c2.6,1.3,3.9,5.2,3.9,11.6c0,6.3-1.4,10.2-4.1,11.6c-1.5,0.7-2.8,1.1-4,1.3
			C343.3,89.2,341.6,89.3,339.3,89.3z"/>
		<path class="st2" d="M414.6,63.6c1.9,0.6,3.5,1.6,4.7,3.1c1.3,1.5,1.9,3.8,1.9,7c0,3.2-1,6.7-2.9,10.5c-1.9,3.8-4.7,5.7-8.3,5.7
			c-1.8,0-3.5-0.4-5.2-1.2c-1.7-0.8-3.8-1.2-6.5-1.2c-2.7,0-5.2,1-7.6,2.9c-2.4,1.9-3.5,4.2-3.5,6.9v31.6c0,2.3-0.1,4-0.2,5.2
			c-0.1,1.2-0.6,2.5-1.4,4c-1.5,2.6-5.4,3.9-11.7,3.9c-4.8,0-8.3-0.9-10.4-2.6c-1.6-1.4-2.5-3.6-2.7-6.5c0-1,0-2.5,0-4.4V75.8
			c0-2.3,0.1-4,0.2-5.2c0.1-1.2,0.6-2.4,1.3-3.8c1.4-2.7,5.3-4.1,11.7-4.1c6,0,9.8,1.2,11.3,3.5c1.1,1.6,1.7,3.3,1.7,5
			c0.5-0.7,1.2-1.6,2.2-2.6c1-1,3-2.4,6.1-4.1c3.1-1.7,5.8-2.6,8.2-2.6c2.4,0,4.3,0.1,5.9,0.4C410.9,62.5,412.7,63,414.6,63.6z"/>
		<path class="st2" d="M503.1,63.6c5.9,2.6,8.9,5.8,8.9,9.5c0,1.8-0.4,3.5-1.2,5.1c-0.8,1.6-1.2,2.5-1.2,2.6l-39.4,88.1
			c-0.8,1.9-1.5,3.4-2,4.4c-0.6,1-1.4,2-2.6,2.9c-1.2,0.9-2.7,1.4-4.5,1.4c-1.8,0-4.5-0.8-8-2.3c-5.9-2.6-8.9-5.7-8.9-9.3
			c0-2.4,4.8-13.9,14.4-34.4L428.7,81c-2-3.3-3-5.8-3-7.4c0-3.2,2.7-6.4,8.1-9.6c3.4-2,6.1-3,8-3c1.9,0,3.5,0.4,4.7,1.2
			c1.2,0.8,2.1,1.6,2.6,2.5c0.5,0.9,3.3,5.5,8.3,14c5,8.5,9.7,16.4,14.2,23.7c0.5-1.6,3.2-7.8,8.1-18.6c4.9-10.8,7.5-16.5,7.9-17.2
			c0.4-0.7,0.9-1.6,1.7-2.6c1.3-1.7,3.1-2.6,5.5-2.6C497.1,61.5,499.9,62.2,503.1,63.6z"/>
	</g>
</g>
<g id="Layer_4">
	<g>
		<g>
			<g>
				<path class="st2" d="M25.3,86.1c-1-4-1.4-5.6-1.4-5.6c-0.3-1.1,0.5-2.2,1.7-2.5l64-16c1.2-0.3,2.3,0.3,2.6,1.4l1.4,5.6
					c1.1,4.3,2,7.8-2.9,9.1c0,0-55.2,13.8-57.9,14.4C27.2,93.9,26.4,90.3,25.3,86.1z"/>
				<path class="st2" d="M65.8,2.7c-1.3,0.3-2.6,0.8-4,1.4C55.6,0.2,47.9-1,40.4,0.9c-14.1,3.5-23,16.7-19.9,29.4
					c0.3,1.1-0.5,2.2-1.7,2.5c-1.2,0.3-2.3-0.3-2.6-1.4c-1-4.2-1-8.4,0.2-12.7c0.2-0.8-0.1-1.5-0.8-2c-0.7-0.5-1.6-0.5-2.3-0.1
					c-9.9,5-15.1,15.2-12.7,24.9c2,8,8.8,14,17.6,15.6l4.1,16.5c0.1,0.5,0.5,0.9,1,1.2c0.5,0.3,1.1,0.3,1.7,0.2l64-16
					c1.2-0.3,1.9-1.4,1.7-2.5L86.4,40c6.9-5.5,10.1-14,8.1-22C91.6,6.3,78.7-0.5,65.8,2.7z M37.9,58.2c-0.3,0.4-0.8,0.7-1.2,0.8
					c-0.6,0.2-1.3,0.1-1.8-0.3c-0.9-0.6-8.8-6-10.1-11c-0.3-1.1,0.5-2.2,1.7-2.5c1.2-0.3,2.3,0.3,2.6,1.4c0.7,2.8,5.6,6.9,8.5,8.8
					C38.5,56,38.7,57.3,37.9,58.2z M55.4,52.2c0.3,1.1-0.5,2.2-1.7,2.5s-2.3-0.3-2.6-1.4l-2.9-11.5c-0.3-1.1,0.5-2.2,1.7-2.5
					s2.3,0.3,2.6,1.4L55.4,52.2L55.4,52.2z M72.3,49.3c-0.3,0.6-0.9,1-1.5,1.1c-0.5,0.1-1,0.1-1.5-0.1c-1.1-0.4-1.5-1.6-1-2.6
					c1.7-3.1,4-9,3.3-11.8c-0.3-1.1,0.5-2.2,1.7-2.5c1.2-0.3,2.3,0.3,2.6,1.4C77.3,39.9,72.8,48.4,72.3,49.3z"/>
			</g>
		</g>
	</g>
</g>
</svg>
